<svg xmlns="http://www.w3.org/2000/svg" xmlns:xlink="http://www.w3.org/1999/xlink" width="48" zoomAndPan="magnify" viewBox="0 0 36 36.000001" height="48" preserveAspectRatio="xMidYMid meet" version="1.0"><defs><g/><clipPath id="e5676f0277"><path d="M 0.488281 0 L 35.511719 0 L 35.511719 35.027344 L 0.488281 35.027344 Z M 0.488281 0 " clip-rule="nonzero"/></clipPath><clipPath id="19349455dd"><path d="M 1.871094 0 L 34.054688 0 C 34.859375 0 35.511719 0.652344 35.511719 1.460938 L 35.511719 33.566406 C 35.511719 34.375 34.859375 35.027344 34.054688 35.027344 L 1.871094 35.027344 C 1.066406 35.027344 0.414062 34.375 0.414062 33.566406 L 0.414062 1.460938 C 0.414062 0.652344 1.066406 0 1.871094 0 Z M 1.871094 0 " clip-rule="nonzero"/></clipPath></defs><g clip-path="url(#e5676f0277)"><g clip-path="url(#19349455dd)"><path fill="#f1f3f6" d="M 0.414062 0 L 35.578125 0 L 35.578125 35.027344 L 0.414062 35.027344 Z M 0.414062 0 " fill-opacity="1" fill-rule="nonzero"/></g></g><g fill="#0877dd" fill-opacity="1"><g transform="translate(2.881478, 26.000002)"><g><path d="M 5.625 -7.90625 L 5.765625 -6.21875 L 5.921875 -7.90625 L 7.734375 -19.484375 C 7.742188 -19.640625 7.804688 -19.753906 7.921875 -19.828125 C 8.046875 -19.910156 8.175781 -19.953125 8.3125 -19.953125 L 11.203125 -19.953125 C 11.335938 -19.953125 11.425781 -19.90625 11.46875 -19.8125 C 11.507812 -19.71875 11.515625 -19.585938 11.484375 -19.421875 L 7.46875 -0.5 C 7.382812 -0.164062 7.203125 0 6.921875 0 L 4.625 0 C 4.34375 0 4.15625 -0.164062 4.0625 -0.5 L 0.0625 -19.390625 C -0.0195312 -19.765625 0.0664062 -19.953125 0.328125 -19.953125 L 3.234375 -19.953125 C 3.378906 -19.953125 3.503906 -19.910156 3.609375 -19.828125 C 3.722656 -19.753906 3.789062 -19.640625 3.8125 -19.484375 Z M 5.625 -7.90625 "/></g></g></g><g fill="#0877dd" fill-opacity="1"><g transform="translate(12.216069, 26.000002)"><g><path d="M 7.96875 -10.140625 L 7.96875 -14.703125 C 7.96875 -15.222656 7.816406 -15.644531 7.515625 -15.96875 C 7.210938 -16.289062 6.8125 -16.453125 6.3125 -16.453125 L 4.875 -16.453125 L 4.875 -8.421875 L 6.328125 -8.421875 C 6.828125 -8.421875 7.222656 -8.582031 7.515625 -8.90625 C 7.816406 -9.238281 7.96875 -9.648438 7.96875 -10.140625 Z M 1.03125 -0.546875 L 1.03125 -19.390625 C 1.03125 -19.765625 1.195312 -19.953125 1.53125 -19.953125 L 6.625 -19.953125 C 7.363281 -19.953125 8.046875 -19.816406 8.671875 -19.546875 C 9.304688 -19.285156 9.859375 -18.921875 10.328125 -18.453125 C 10.804688 -17.984375 11.175781 -17.429688 11.4375 -16.796875 C 11.695312 -16.171875 11.828125 -15.5 11.828125 -14.78125 L 11.828125 -10.171875 C 11.828125 -9.441406 11.695312 -8.757812 11.4375 -8.125 C 11.175781 -7.5 10.804688 -6.945312 10.328125 -6.46875 C 9.859375 -5.988281 9.304688 -5.613281 8.671875 -5.34375 C 8.046875 -5.082031 7.363281 -4.953125 6.625 -4.953125 L 4.875 -4.953125 L 4.875 -0.546875 C 4.875 -0.179688 4.710938 0 4.390625 0 L 1.53125 0 C 1.195312 0 1.03125 -0.179688 1.03125 -0.546875 Z M 1.03125 -0.546875 "/></g></g></g><g fill="#0877dd" fill-opacity="1"><g transform="translate(19.978807, 26.000002)"><g><path d="M 9.671875 0.703125 L 9.671875 2.546875 C 9.671875 2.671875 9.628906 2.769531 9.546875 2.84375 C 9.472656 2.914062 9.390625 2.953125 9.296875 2.953125 L 1.21875 2.953125 C 1.125 2.953125 1.039062 2.921875 0.96875 2.859375 C 0.894531 2.796875 0.859375 2.691406 0.859375 2.546875 L 0.859375 0.703125 C 0.859375 0.578125 0.894531 0.472656 0.96875 0.390625 C 1.039062 0.316406 1.128906 0.28125 1.234375 0.28125 L 9.296875 0.28125 C 9.390625 0.28125 9.472656 0.316406 9.546875 0.390625 C 9.628906 0.460938 9.671875 0.566406 9.671875 0.703125 Z M 9.671875 0.703125 "/></g></g></g><g fill="#0877dd" fill-opacity="1"><g transform="translate(28.318447, 26.000002)"><g><path d="M 4.546875 -2.875 L 4.546875 -0.5 C 4.546875 -0.3125 4.488281 -0.179688 4.375 -0.109375 C 4.257812 -0.0351562 4.164062 0 4.09375 0 L 1.4375 0 C 1.375 0 1.285156 -0.03125 1.171875 -0.09375 C 1.066406 -0.164062 1.015625 -0.300781 1.015625 -0.5 L 1.015625 -2.875 C 1.015625 -3.050781 1.054688 -3.179688 1.140625 -3.265625 C 1.234375 -3.359375 1.328125 -3.40625 1.421875 -3.40625 L 4.09375 -3.40625 C 4.28125 -3.40625 4.398438 -3.34375 4.453125 -3.21875 C 4.515625 -3.09375 4.546875 -2.976562 4.546875 -2.875 Z M 4.546875 -2.875 "/></g></g></g></svg>