<svg xmlns="http://www.w3.org/2000/svg" xmlns:xlink="http://www.w3.org/1999/xlink" width="100" zoomAndPan="magnify" viewBox="0 0 75 74.999997" height="100" preserveAspectRatio="xMidYMid meet" version="1.0"><defs><g/><clipPath id="d1f9fc9a60"><path d="M 0 23.089844 L 75 23.089844 L 75 51.910156 L 0 51.910156 Z M 0 23.089844 " clip-rule="nonzero"/></clipPath></defs><g clip-path="url(#d1f9fc9a60)"><path fill="#9b9494" d="M 0 23.089844 L 74.972656 23.089844 L 74.972656 51.910156 L 0 51.910156 Z M 0 23.089844 " fill-opacity="1" fill-rule="nonzero"/></g><g fill="#212121" fill-opacity="1"><g transform="translate(0.0000015, 36.575453)"><g><path d="M 2.890625 -8.8125 L 2.890625 -1.453125 L 6.84375 -1.453125 L 6.84375 0 L 1.140625 0 L 1.140625 -8.8125 Z M 2.890625 -8.8125 "/></g></g></g><g fill="#212121" fill-opacity="1"><g transform="translate(5.971901, 36.575453)"><g><path d="M 4.796875 0.125 C 3.992188 0.125 3.28125 -0.0351562 2.65625 -0.359375 C 2.039062 -0.691406 1.554688 -1.195312 1.203125 -1.875 C 0.859375 -2.550781 0.6875 -3.394531 0.6875 -4.40625 C 0.6875 -5.414062 0.859375 -6.257812 1.203125 -6.9375 C 1.554688 -7.613281 2.039062 -8.113281 2.65625 -8.4375 C 3.28125 -8.769531 3.992188 -8.9375 4.796875 -8.9375 C 5.609375 -8.9375 6.320312 -8.769531 6.9375 -8.4375 C 7.550781 -8.113281 8.03125 -7.613281 8.375 -6.9375 C 8.726562 -6.257812 8.90625 -5.414062 8.90625 -4.40625 C 8.90625 -3.394531 8.726562 -2.550781 8.375 -1.875 C 8.03125 -1.195312 7.550781 -0.691406 6.9375 -0.359375 C 6.320312 -0.0351562 5.609375 0.125 4.796875 0.125 Z M 4.796875 -1.390625 C 5.546875 -1.390625 6.117188 -1.628906 6.515625 -2.109375 C 6.910156 -2.585938 7.109375 -3.351562 7.109375 -4.40625 C 7.109375 -5.457031 6.910156 -6.222656 6.515625 -6.703125 C 6.117188 -7.191406 5.546875 -7.4375 4.796875 -7.4375 C 4.046875 -7.4375 3.472656 -7.191406 3.078125 -6.703125 C 2.679688 -6.222656 2.484375 -5.457031 2.484375 -4.40625 C 2.484375 -3.351562 2.679688 -2.585938 3.078125 -2.109375 C 3.472656 -1.628906 4.046875 -1.390625 4.796875 -1.390625 Z M 4.796875 -1.390625 "/></g></g></g><g fill="#212121" fill-opacity="1"><g transform="translate(14.643376, 36.575453)"><g><path d="M 4.8125 0.125 C 4 0.125 3.28125 -0.0390625 2.65625 -0.375 C 2.039062 -0.71875 1.554688 -1.226562 1.203125 -1.90625 C 0.859375 -2.582031 0.6875 -3.414062 0.6875 -4.40625 C 0.6875 -5.394531 0.859375 -6.226562 1.203125 -6.90625 C 1.554688 -7.582031 2.039062 -8.085938 2.65625 -8.421875 C 3.28125 -8.765625 4 -8.9375 4.8125 -8.9375 C 5.664062 -8.9375 6.382812 -8.769531 6.96875 -8.4375 C 7.5625 -8.101562 7.988281 -7.597656 8.25 -6.921875 L 6.96875 -6.140625 L 6.828125 -6.15625 C 6.640625 -6.613281 6.378906 -6.941406 6.046875 -7.140625 C 5.722656 -7.335938 5.3125 -7.4375 4.8125 -7.4375 C 4.082031 -7.4375 3.507812 -7.191406 3.09375 -6.703125 C 2.6875 -6.222656 2.484375 -5.457031 2.484375 -4.40625 C 2.484375 -3.351562 2.6875 -2.582031 3.09375 -2.09375 C 3.507812 -1.613281 4.082031 -1.375 4.8125 -1.375 C 5.957031 -1.375 6.660156 -1.929688 6.921875 -3.046875 L 7.0625 -3.046875 L 8.359375 -2.375 C 8.109375 -1.539062 7.691406 -0.914062 7.109375 -0.5 C 6.535156 -0.0820312 5.769531 0.125 4.8125 0.125 Z M 4.8125 0.125 "/></g></g></g><g fill="#212121" fill-opacity="1"><g transform="translate(22.2543, 36.575453)"><g><path d="M 4.796875 0.125 C 3.992188 0.125 3.28125 -0.0351562 2.65625 -0.359375 C 2.039062 -0.691406 1.554688 -1.195312 1.203125 -1.875 C 0.859375 -2.550781 0.6875 -3.394531 0.6875 -4.40625 C 0.6875 -5.414062 0.859375 -6.257812 1.203125 -6.9375 C 1.554688 -7.613281 2.039062 -8.113281 2.65625 -8.4375 C 3.28125 -8.769531 3.992188 -8.9375 4.796875 -8.9375 C 5.609375 -8.9375 6.320312 -8.769531 6.9375 -8.4375 C 7.550781 -8.113281 8.03125 -7.613281 8.375 -6.9375 C 8.726562 -6.257812 8.90625 -5.414062 8.90625 -4.40625 C 8.90625 -3.394531 8.726562 -2.550781 8.375 -1.875 C 8.03125 -1.195312 7.550781 -0.691406 6.9375 -0.359375 C 6.320312 -0.0351562 5.609375 0.125 4.796875 0.125 Z M 4.796875 -1.390625 C 5.546875 -1.390625 6.117188 -1.628906 6.515625 -2.109375 C 6.910156 -2.585938 7.109375 -3.351562 7.109375 -4.40625 C 7.109375 -5.457031 6.910156 -6.222656 6.515625 -6.703125 C 6.117188 -7.191406 5.546875 -7.4375 4.796875 -7.4375 C 4.046875 -7.4375 3.472656 -7.191406 3.078125 -6.703125 C 2.679688 -6.222656 2.484375 -5.457031 2.484375 -4.40625 C 2.484375 -3.351562 2.679688 -2.585938 3.078125 -2.109375 C 3.472656 -1.628906 4.046875 -1.390625 4.796875 -1.390625 Z M 4.796875 -1.390625 "/></g></g></g><g fill="#212121" fill-opacity="1"><g transform="translate(30.925775, 36.575453)"><g><path d="M 2.75 0 L 1.140625 0 L 1.140625 -8.8125 L 3.421875 -8.8125 L 5.65625 -2.328125 L 5.78125 -2.328125 L 8 -8.8125 L 10.21875 -8.8125 L 10.21875 0 L 8.578125 0 L 8.578125 -5.828125 L 8.421875 -5.84375 L 6.390625 0 L 4.9375 0 L 2.890625 -5.84375 L 2.75 -5.828125 Z M 2.75 0 "/></g></g></g><g fill="#212121" fill-opacity="1"><g transform="translate(41.368705, 36.575453)"><g><path d="M 4.796875 0.125 C 3.992188 0.125 3.28125 -0.0351562 2.65625 -0.359375 C 2.039062 -0.691406 1.554688 -1.195312 1.203125 -1.875 C 0.859375 -2.550781 0.6875 -3.394531 0.6875 -4.40625 C 0.6875 -5.414062 0.859375 -6.257812 1.203125 -6.9375 C 1.554688 -7.613281 2.039062 -8.113281 2.65625 -8.4375 C 3.28125 -8.769531 3.992188 -8.9375 4.796875 -8.9375 C 5.609375 -8.9375 6.320312 -8.769531 6.9375 -8.4375 C 7.550781 -8.113281 8.03125 -7.613281 8.375 -6.9375 C 8.726562 -6.257812 8.90625 -5.414062 8.90625 -4.40625 C 8.90625 -3.394531 8.726562 -2.550781 8.375 -1.875 C 8.03125 -1.195312 7.550781 -0.691406 6.9375 -0.359375 C 6.320312 -0.0351562 5.609375 0.125 4.796875 0.125 Z M 4.796875 -1.390625 C 5.546875 -1.390625 6.117188 -1.628906 6.515625 -2.109375 C 6.910156 -2.585938 7.109375 -3.351562 7.109375 -4.40625 C 7.109375 -5.457031 6.910156 -6.222656 6.515625 -6.703125 C 6.117188 -7.191406 5.546875 -7.4375 4.796875 -7.4375 C 4.046875 -7.4375 3.472656 -7.191406 3.078125 -6.703125 C 2.679688 -6.222656 2.484375 -5.457031 2.484375 -4.40625 C 2.484375 -3.351562 2.679688 -2.585938 3.078125 -2.109375 C 3.472656 -1.628906 4.046875 -1.390625 4.796875 -1.390625 Z M 4.796875 -1.390625 "/></g></g></g><g fill="#212121" fill-opacity="1"><g transform="translate(49.829102, 36.575453)"><g><path d="M 7.0625 -8.8125 L 7.0625 -7.34375 L 4.515625 -7.34375 L 4.515625 0 L 2.78125 0 L 2.78125 -7.34375 L 0.234375 -7.34375 L 0.234375 -8.8125 Z M 7.0625 -8.8125 "/></g></g></g><g fill="#212121" fill-opacity="1"><g transform="translate(56.204916, 36.575453)"><g><path d="M 2.890625 0 L 1.140625 0 L 1.140625 -8.8125 L 2.890625 -8.8125 Z M 2.890625 0 "/></g></g></g><g fill="#212121" fill-opacity="1"><g transform="translate(59.314986, 36.575453)"><g><path d="M 5.234375 0 L 3.140625 0 L 0.15625 -8.8125 L 2 -8.8125 L 4.140625 -2.234375 L 4.296875 -2.234375 L 6.40625 -8.8125 L 8.203125 -8.8125 Z M 5.234375 0 "/></g></g></g><g fill="#212121" fill-opacity="1"><g transform="translate(66.751262, 36.575453)"><g><path d="M 2.890625 -3.875 L 2.890625 -1.453125 L 7.09375 -1.453125 L 7.09375 0 L 1.140625 0 L 1.140625 -8.8125 L 7 -8.8125 L 7 -7.359375 L 2.890625 -7.359375 L 2.890625 -5.296875 L 6.484375 -5.296875 L 6.484375 -3.875 Z M 2.890625 -3.875 "/></g></g></g><g fill="#212121" fill-opacity="1"><g transform="translate(0.0000015, 47.337323)"><g><path d="M 3.90625 0.125 C 3.289062 0.125 2.742188 0.0507812 2.265625 -0.09375 C 1.796875 -0.25 1.398438 -0.445312 1.078125 -0.6875 C 0.765625 -0.9375 0.523438 -1.207031 0.359375 -1.5 L 1.3125 -2.671875 L 1.46875 -2.671875 C 1.726562 -2.273438 2.0625 -1.957031 2.46875 -1.71875 C 2.882812 -1.488281 3.363281 -1.375 3.90625 -1.375 C 4.375 -1.375 4.722656 -1.472656 4.953125 -1.671875 C 5.191406 -1.867188 5.3125 -2.140625 5.3125 -2.484375 C 5.3125 -2.691406 5.273438 -2.863281 5.203125 -3 C 5.128906 -3.144531 5.003906 -3.269531 4.828125 -3.375 C 4.648438 -3.476562 4.410156 -3.566406 4.109375 -3.640625 L 2.96875 -3.890625 C 2.175781 -4.078125 1.585938 -4.378906 1.203125 -4.796875 C 0.816406 -5.210938 0.625 -5.757812 0.625 -6.4375 C 0.625 -6.925781 0.75 -7.359375 1 -7.734375 C 1.25 -8.117188 1.609375 -8.414062 2.078125 -8.625 C 2.554688 -8.832031 3.128906 -8.9375 3.796875 -8.9375 C 4.472656 -8.9375 5.050781 -8.847656 5.53125 -8.671875 C 6.019531 -8.492188 6.429688 -8.21875 6.765625 -7.84375 L 5.90625 -6.671875 L 5.75 -6.671875 C 5.5 -6.929688 5.210938 -7.125 4.890625 -7.25 C 4.566406 -7.382812 4.203125 -7.453125 3.796875 -7.453125 C 3.316406 -7.453125 2.953125 -7.363281 2.703125 -7.1875 C 2.453125 -7.019531 2.328125 -6.789062 2.328125 -6.5 C 2.328125 -6.21875 2.410156 -5.992188 2.578125 -5.828125 C 2.753906 -5.671875 3.0625 -5.546875 3.5 -5.453125 L 4.65625 -5.203125 C 5.507812 -5.023438 6.128906 -4.71875 6.515625 -4.28125 C 6.898438 -3.851562 7.09375 -3.289062 7.09375 -2.59375 C 7.09375 -2.039062 6.972656 -1.5625 6.734375 -1.15625 C 6.503906 -0.75 6.148438 -0.429688 5.671875 -0.203125 C 5.191406 0.015625 4.601562 0.125 3.90625 0.125 Z M 3.90625 0.125 "/></g></g></g><g fill="#212121" fill-opacity="1"><g transform="translate(6.640931, 47.337323)"><g><path d="M 4.8125 0.125 C 4 0.125 3.28125 -0.0390625 2.65625 -0.375 C 2.039062 -0.71875 1.554688 -1.226562 1.203125 -1.90625 C 0.859375 -2.582031 0.6875 -3.414062 0.6875 -4.40625 C 0.6875 -5.394531 0.859375 -6.226562 1.203125 -6.90625 C 1.554688 -7.582031 2.039062 -8.085938 2.65625 -8.421875 C 3.28125 -8.765625 4 -8.9375 4.8125 -8.9375 C 5.664062 -8.9375 6.382812 -8.769531 6.96875 -8.4375 C 7.5625 -8.101562 7.988281 -7.597656 8.25 -6.921875 L 6.96875 -6.140625 L 6.828125 -6.15625 C 6.640625 -6.613281 6.378906 -6.941406 6.046875 -7.140625 C 5.722656 -7.335938 5.3125 -7.4375 4.8125 -7.4375 C 4.082031 -7.4375 3.507812 -7.191406 3.09375 -6.703125 C 2.6875 -6.222656 2.484375 -5.457031 2.484375 -4.40625 C 2.484375 -3.351562 2.6875 -2.582031 3.09375 -2.09375 C 3.507812 -1.613281 4.082031 -1.375 4.8125 -1.375 C 5.957031 -1.375 6.660156 -1.929688 6.921875 -3.046875 L 7.0625 -3.046875 L 8.359375 -2.375 C 8.109375 -1.539062 7.691406 -0.914062 7.109375 -0.5 C 6.535156 -0.0820312 5.769531 0.125 4.8125 0.125 Z M 4.8125 0.125 "/></g></g></g><g fill="#212121" fill-opacity="1"><g transform="translate(14.354374, 47.337323)"><g><path d="M 1.140625 0 L 1.140625 -8.8125 L 4.6875 -8.8125 C 5.59375 -8.8125 6.273438 -8.597656 6.734375 -8.171875 C 7.203125 -7.753906 7.4375 -7.175781 7.4375 -6.4375 C 7.4375 -5.90625 7.300781 -5.46875 7.03125 -5.125 C 6.757812 -4.78125 6.359375 -4.519531 5.828125 -4.34375 L 5.828125 -4.21875 C 6.097656 -4.09375 6.316406 -3.910156 6.484375 -3.671875 C 6.660156 -3.441406 6.828125 -3.09375 6.984375 -2.625 L 7.859375 0 L 6.0625 0 L 5.203125 -2.640625 C 5.117188 -2.898438 5.019531 -3.101562 4.90625 -3.25 C 4.800781 -3.394531 4.660156 -3.5 4.484375 -3.5625 C 4.316406 -3.632812 4.097656 -3.671875 3.828125 -3.671875 L 2.890625 -3.671875 L 2.890625 0 Z M 4.46875 -5.046875 C 5.3125 -5.046875 5.734375 -5.441406 5.734375 -6.234375 C 5.734375 -7.035156 5.3125 -7.4375 4.46875 -7.4375 L 2.890625 -7.4375 L 2.890625 -5.046875 Z M 4.46875 -5.046875 "/></g></g></g><g fill="#212121" fill-opacity="1"><g transform="translate(21.664118, 47.337323)"><g><path d="M 4.796875 0.125 C 3.992188 0.125 3.28125 -0.0351562 2.65625 -0.359375 C 2.039062 -0.691406 1.554688 -1.195312 1.203125 -1.875 C 0.859375 -2.550781 0.6875 -3.394531 0.6875 -4.40625 C 0.6875 -5.414062 0.859375 -6.257812 1.203125 -6.9375 C 1.554688 -7.613281 2.039062 -8.113281 2.65625 -8.4375 C 3.28125 -8.769531 3.992188 -8.9375 4.796875 -8.9375 C 5.609375 -8.9375 6.320312 -8.769531 6.9375 -8.4375 C 7.550781 -8.113281 8.03125 -7.613281 8.375 -6.9375 C 8.726562 -6.257812 8.90625 -5.414062 8.90625 -4.40625 C 8.90625 -3.394531 8.726562 -2.550781 8.375 -1.875 C 8.03125 -1.195312 7.550781 -0.691406 6.9375 -0.359375 C 6.320312 -0.0351562 5.609375 0.125 4.796875 0.125 Z M 4.796875 -1.390625 C 5.546875 -1.390625 6.117188 -1.628906 6.515625 -2.109375 C 6.910156 -2.585938 7.109375 -3.351562 7.109375 -4.40625 C 7.109375 -5.457031 6.910156 -6.222656 6.515625 -6.703125 C 6.117188 -7.191406 5.546875 -7.4375 4.796875 -7.4375 C 4.046875 -7.4375 3.472656 -7.191406 3.078125 -6.703125 C 2.679688 -6.222656 2.484375 -5.457031 2.484375 -4.40625 C 2.484375 -3.351562 2.679688 -2.585938 3.078125 -2.109375 C 3.472656 -1.628906 4.046875 -1.390625 4.796875 -1.390625 Z M 4.796875 -1.390625 "/></g></g></g><g fill="#212121" fill-opacity="1"><g transform="translate(30.335593, 47.337323)"><g><path d="M 2.890625 -8.8125 L 2.890625 -1.453125 L 6.84375 -1.453125 L 6.84375 0 L 1.140625 0 L 1.140625 -8.8125 Z M 2.890625 -8.8125 "/></g></g></g><g fill="#212121" fill-opacity="1"><g transform="translate(36.542696, 47.337323)"><g><path d="M 2.890625 -8.8125 L 2.890625 -1.453125 L 6.84375 -1.453125 L 6.84375 0 L 1.140625 0 L 1.140625 -8.8125 Z M 2.890625 -8.8125 "/></g></g></g></svg>