<svg xmlns="http://www.w3.org/2000/svg" xmlns:xlink="http://www.w3.org/1999/xlink" width="100" zoomAndPan="magnify" viewBox="0 0 75 74.999997" height="100" preserveAspectRatio="xMidYMid meet" version="1.0"><path fill="#0a6936" d="M 21.042969 68.835938 C 20.734375 68.867188 8.664062 72.3125 8.679688 72.058594 C 7.066406 72.125 6.046875 70.808594 5.078125 69.726562 C 3.894531 68.507812 2.453125 67.101562 3.035156 65.238281 L 6.214844 53.269531 C -13.15625 15.09375 37.222656 -17.371094 64.390625 15.847656 C 91.09375 45.226562 55.234375 89.101562 21.042969 68.835938 Z M 21.042969 68.835938 " fill-opacity="1" fill-rule="nonzero"/><path fill="#80c342" d="M 67.914062 36.292969 C 67.914062 53.785156 53.714844 67.964844 36.195312 67.964844 C 29.855469 67.964844 23.953125 66.105469 18.996094 62.90625 C 18.828125 62.796875 18.621094 62.765625 18.429688 62.816406 L 6.015625 66.171875 C 5.6875 66.261719 5.382812 65.960938 5.472656 65.632812 L 8.878906 52.804688 C 8.925781 52.625 8.898438 52.429688 8.804688 52.269531 C 6.175781 47.785156 4.621094 42.605469 4.484375 37.066406 C 4.046875 18.90625 19.113281 4.019531 37.292969 4.636719 C 54.304688 5.214844 67.914062 19.167969 67.914062 36.292969 Z M 67.914062 36.292969 " fill-opacity="1" fill-rule="nonzero"/><path fill="#199146" d="M 59.574219 13.773438 C 54.511719 8.558594 47.980469 5.222656 40.890625 4.179688 C 40.304688 4.128906 39.71875 4.09375 39.128906 4.070312 C 34.546875 3.917969 30.082031 4.699219 25.855469 6.398438 C 21.785156 8.035156 18.132812 10.4375 14.992188 13.539062 C 11.855469 16.640625 9.414062 20.265625 7.734375 24.3125 C 5.992188 28.511719 5.164062 32.964844 5.273438 37.535156 C 5.402344 42.960938 6.894531 48.296875 9.589844 52.984375 L 6.292969 65.398438 C 6.128906 66.019531 6.308594 66.6875 6.765625 67.136719 C 6.816406 67.191406 6.867188 67.234375 6.925781 67.28125 L 18.558594 64.132812 C 18.839844 64.3125 19.125 64.484375 19.414062 64.65625 L 20.496094 64.363281 C 24.363281 66.808594 28.675781 68.402344 33.175781 69.066406 C 34.128906 69.152344 35.09375 69.195312 36.058594 69.195312 C 44.800781 69.195312 53.019531 65.792969 59.203125 59.621094 C 65.382812 53.449219 68.789062 45.242188 68.789062 36.511719 C 68.789062 27.976562 65.515625 19.902344 59.574219 13.773438 Z M 38.324219 67.566406 C 36.808594 67.566406 35.511719 67.757812 34.03125 67.535156 C 31.757812 67.191406 30.316406 68.132812 18.800781 62.984375 C 13.878906 62.65625 9.347656 64.546875 9.347656 64.546875 L 9.5625 63.738281 L 12.304688 53.417969 C 12.445312 52.882812 12.367188 52.324219 12.089844 51.84375 C 9.539062 47.496094 8.128906 42.527344 8.003906 37.472656 C 7.804688 29.167969 10.96875 21.359375 16.914062 15.480469 C 22.863281 9.601562 30.71875 6.515625 39.035156 6.800781 C 39.566406 6.816406 40.089844 6.847656 40.609375 6.894531 C 56.085938 8.210938 67.992188 21.03125 67.992188 36.738281 C 67.992188 53.253906 54.867188 67.566406 38.324219 67.566406 Z M 38.324219 67.566406 " fill-opacity="1" fill-rule="nonzero"/><path fill="#0d7b3e" d="M 51.957031 53.707031 C 38.773438 58.867188 22.261719 42.859375 17.539062 31.316406 C 16.429688 27.621094 17.546875 22.691406 20.078125 19.867188 C 22.125 17.40625 26.667969 17.105469 28.570312 19.8125 C 29.273438 20.539062 30.027344 21.164062 30.394531 22.179688 C 31.664062 25.484375 34.851562 30.066406 31.195312 33.214844 C 30.429688 33.960938 30.15625 34.289062 30.746094 35.132812 C 32.484375 38.269531 35.503906 40.457031 38.691406 42.074219 C 42.039062 44.28125 41.492188 38.296875 45.386719 38.398438 C 47.855469 38.527344 49.066406 40.109375 51.257812 40.789062 C 53.378906 41.632812 53.953125 41.890625 55.503906 43.652344 C 58.382812 46.269531 55.289062 52.355469 51.957031 53.707031 Z M 51.957031 53.707031 " fill-opacity="1" fill-rule="nonzero"/><path fill="#ffffff" d="M 53.859375 46.011719 C 53.433594 48.261719 52.058594 50.121094 50.027344 51.144531 C 46.289062 53.042969 41.527344 51.75 37.605469 50.167969 C 30.117188 47.265625 21.53125 38.242188 18.773438 30.855469 C 17.851562 27.621094 18.871094 23.179688 21.066406 20.742188 C 22.859375 18.707031 26.738281 18.464844 27.851562 21.316406 C 28.441406 22.589844 29.417969 24.949219 29.996094 26.589844 C 30.507812 27.816406 30.390625 29.152344 29.539062 30.234375 L 29.523438 30.253906 C 28.242188 31.722656 27.019531 32.339844 28.269531 34.410156 C 29.359375 36.28125 30.710938 37.820312 32.351562 39.324219 C 34.144531 40.957031 36.007812 42.210938 38.101562 43.253906 C 39.292969 43.871094 40.304688 44.296875 41.363281 43.507812 C 41.976562 43.074219 42.488281 42.445312 42.890625 41.820312 C 43.160156 41.402344 43.402344 40.980469 43.675781 40.625 C 44.847656 39.007812 46.710938 39.867188 48.070312 40.734375 C 49.472656 41.597656 51.199219 42.105469 52.640625 42.839844 C 54.007812 43.476562 54.179688 44.644531 53.859375 46.011719 Z M 69.296875 36.292969 C 69.296875 45.121094 65.851562 53.421875 59.601562 59.664062 C 53.347656 65.90625 45.039062 69.347656 36.195312 69.347656 C 35.21875 69.347656 34.246094 69.304688 33.28125 69.21875 C 28.359375 68.789062 23.613281 67.269531 19.359375 64.753906 C 19.070312 64.582031 18.785156 64.410156 18.5 64.226562 L 6.734375 67.410156 L 6.378906 67.503906 C 5.75 67.671875 5.074219 67.496094 4.613281 67.035156 C 4.152344 66.578125 3.96875 65.90625 4.136719 65.277344 L 7.472656 52.722656 C 4.746094 47.980469 3.234375 42.585938 3.105469 37.101562 C 2.992188 32.476562 3.832031 27.976562 5.59375 23.726562 C 7.292969 19.632812 9.761719 15.96875 12.933594 12.832031 C 16.109375 9.695312 19.804688 7.265625 23.917969 5.609375 C 28.195312 3.890625 32.710938 3.101562 37.34375 3.257812 C 38.601562 3.300781 39.851562 3.414062 41.082031 3.597656 C 48.253906 4.652344 54.859375 8.023438 59.976562 13.300781 C 65.984375 19.496094 69.296875 27.664062 69.296875 36.292969 Z M 66.53125 36.292969 C 66.53125 21.078125 55.484375 8.542969 40.800781 6.34375 C 39.636719 6.167969 38.453125 6.058594 37.246094 6.015625 C 28.835938 5.730469 20.894531 8.847656 14.878906 14.792969 C 8.867188 20.738281 5.664062 28.636719 5.867188 37.035156 C 5.992188 42.148438 7.417969 47.171875 9.996094 51.570312 C 10.28125 52.054688 10.355469 52.621094 10.214844 53.160156 L 7.222656 64.417969 L 9.398438 63.828125 L 18.066406 61.484375 C 18.246094 61.4375 18.429688 61.414062 18.609375 61.414062 C 19.011719 61.414062 19.40625 61.527344 19.746094 61.75 C 19.761719 61.757812 19.777344 61.769531 19.792969 61.777344 C 23.957031 64.457031 28.6875 66.058594 33.601562 66.476562 C 34.460938 66.550781 35.328125 66.585938 36.195312 66.585938 C 52.921875 66.585938 66.53125 52.996094 66.53125 36.292969 Z M 66.53125 36.292969 " fill-opacity="1" fill-rule="nonzero"/></svg>